<?xml version="1.0" encoding="utf-8"?>
<!-- Generator: Adobe Illustrator 25.4.1, SVG Export Plug-In . SVG Version: 6.00 Build 0)  -->
<svg version="1.1" id="e7334088-53de-4589-99a2-090044ddfc90"
	 xmlns="http://www.w3.org/2000/svg" xmlns:xlink="http://www.w3.org/1999/xlink" x="0px" y="0px" viewBox="0 0 973.5 587"
	 style="enable-background:new 0 0 973.5 587;" xml:space="preserve">
<style type="text/css">
	.st0{fill:#E4E4E4;}
	.st1{fill:#CACACA;}
	.st2{fill:#FFB6B6;}
	.st3{fill:#2F2E41;}
	.st4{fill:#FEB8B8;}
	.st5{fill:#8E283D;}
	.st6{fill:#FBBEBE;}
	.st7{fill:#3F3D56;}
	.st8{fill:#FFFFFF;}
	.st9{fill:#CCCCCC;}
	.st10{fill:#E6E6E6;}
</style>
<g id="f9b32178-6d95-472d-b482-6662972666de">
	<path id="f4b94a19-cbe0-459a-95a6-6ea3b3d72055" class="st0" d="M561.9,471.6c-6.3,0-11.5,5.1-11.5,11.5s5.1,11.5,11.5,11.5
		c6.3,0,11.5-5.1,11.5-11.5l0,0l0,0C573.4,476.8,568.2,471.6,561.9,471.6z M561.9,490.2c-3.9,0-7.1-3.2-7.1-7.1
		c0-3.9,3.2-7.1,7.1-7.1c3.9,0,7.1,3.2,7.1,7.1c0,0,0,0,0,0v0C568.9,487,565.8,490.2,561.9,490.2z"/>
	<path id="abc0e0b3-f22e-4bee-9929-c6879640924e" class="st0" d="M517.7,462.8h44.2v43.7c0,3.2-2.6,5.8-5.8,5.8c0,0,0,0,0,0h-32.7
		c-3.2,0-5.8-2.6-5.8-5.8c0,0,0,0,0,0L517.7,462.8L517.7,462.8z"/>
</g>
<path id="e24b6f19-a0a0-4e73-9cfc-bbb7635ad236" class="st1" d="M665.1,513.3H0.9c-0.6-0.1-1-0.6-0.9-1.1c0.1-0.5,0.4-0.8,0.9-0.9
	h664.2c0.6,0.1,1,0.6,0.9,1.1C666,512.8,665.6,513.2,665.1,513.3z"/>
<polygon class="st2" points="89.4,494.4 85.3,514.7 161.7,540.2 167.8,510.2 "/>
<path class="st3" d="M97.1,490.5l-8.1,40l0,0c-2.8,14.1-16.6,23.2-30.6,20.3l-0.8-0.2l13.2-65.5L97.1,490.5z"/>
<circle id="fd4e5ab9-ffc8-4bbb-9267-3af70c31dae1" class="st4" cx="176" cy="162.7" r="51.9"/>
<path id="a8c9bbe2-1461-49cf-8211-f8d251166dc5" class="st3" d="M224.4,118c-7.8-12.6-19.9-21.9-34.1-26.1l-6.4,4.6v-6
	c-3.4-0.5-6.9-0.7-10.3-0.6l-5.5,5v-4.6c-16.4,2-31.3,10.9-40.9,24.3c-11.9,17.2-13.9,41.1-2.2,58.5c3.2-9.9,7.1-19.2,10.4-29.1
	c2.5,0.3,5.1,0.4,7.6,0l3.9-9.1l1.1,8.8c12.1-1.1,30.2-3.4,41.7-5.5l-1.1-6.7l6.7,5.6c3.5-0.8,5.6-1.5,5.5-2.1
	c8.6,13.8,19,22.6,27.6,36.4C231.6,151.9,235.4,135.7,224.4,118z"/>
<ellipse id="f6be96d1-713f-4c17-812c-ecd79c56fe95" class="st3" cx="192.9" cy="464.8" rx="133.6" ry="37.4"/>
<path class="st5" d="M287.5,296.1c-1.8-10.7-3.6-21.7-8.6-31.3c-3.3-6.3-8.5-12.4-15.5-13.6c-1.4-0.1-2.7-0.4-4-0.9
	c-2.1-1-29.7-16.8-34.1-19.5c-3.8-2.4-9.7-6.7-12.7-6.7c-3-0.1-14.6,2.6-59.8-0.9c-7.6,3-15,6.7-22,10.8c-0.1-0.1-46.9,25-48.6,24.9
	c-3.3-0.1-6.4,2-8.3,4.7c-1.9,2.7-2.8,6-3.7,9.2c10.2,22.7,19.5,45.5,29.8,68.2c0.5,0.9,0.7,1.8,0.7,2.8c-0.2,1-0.6,2-1.3,2.8
	c-5,8-4.8,18.2-4.3,27.6c0.5,9.5,1.2,19.4-3,27.9c-1.1,2.3-2.6,4.5-3.7,6.8c-2.6,5.3-3.5,22.1-2,27.8l187.3,5.4
	C269.6,430.9,287.5,296.1,287.5,296.1z"/>
<path id="eb41f72e-aba6-4a16-bf55-c7027d2f1a4b" class="st6" d="M54,342c-0.4,2.7-0.4,5.4-0.1,8.2l2.7,38.5
	c0.3,3.6,0.5,7.3,0.8,10.9c0.6,7,1.6,14,2.8,21c0.1,2.1,1.8,3.7,3.8,3.6c11.8,2.5,24,2.4,36.1,1.7c18.4-1,65.5-3,68.3-6.7
	s1.2-9.8-2.5-12.8S100,396,100,396c0.6-4.8,2.4-9.3,4.2-13.9c3.1-8.1,6-16.5,6.1-25.1s-3.2-17.8-10.3-22.8
	c-5.8-4.1-13.4-4.8-20.5-4.7c-5.2,0.1-14.1-1.1-18.9,0.9C56.8,332.1,54.7,338.3,54,342z"/>
<path id="a363f2f7-2464-40a1-ad01-344825aa0b75" class="st3" d="M287.9,429.1c3.1-1.2,6.5-0.8,9.9-0.3c10.7,1.5,21.6,3,31.6,7.3
	c4.7,2,9.1,4.7,12.3,8.6c2.8,3.5,4.4,7.9,6,12.1l3.6,9.8c1.5,3.7,2.6,7.6,3.1,11.5c1.1,11.8-6.9,22.8-17,29
	c-10.1,6.1-22,8.3-33.6,10.6c-11.6,2.3-23.2,4.8-34.8,7.5c-5.4,1.4-10.9,2.5-16.4,3.2c-12.4,1.4-25.3-0.7-37,3.4
	c-4.7,1.6-9.3,4.1-14.1,5.2c-3.2,0.7-6.5,1.2-9.8,1.5l-22.2,2.5c-4.5,0.6-9.1,1-13.6,1c-9.7,0-19.3-2.3-28.7-4.6
	c-1-0.2-2-0.6-2.8-1.1c-1.5-1.2-1.8-3.3-2-5.1c-1-8.4-1.8-16.7-2.5-25.1c-0.2-2.7-0.4-5.7,1.1-7.9c1.9-2.8,5.5-3.7,8.8-4.2
	c14.1-2.3,28.4-3.3,42.7-3c5.4-5.4,14.4-5.5,21.5-8.4c2.6-1.2,5.1-2.6,7.6-4.1c12.7-7.4,26.9-11.9,41.6-13.1
	c2.9-0.1,5.7-0.5,8.5-1.2c5.5-1.7,10.5-6.4,16.2-5.2c0.7-1.9,1.2-4.5,2.8-5.8c0.8-0.7,1.8-1.1,2.5-1.9c1.6-1.6,1.7-4.1,1.5-6.3
	s-0.8-4.5-0.2-6.6c0.2-0.8,0.6-1.6,1-2.3C278,431.1,282.2,428.6,287.9,429.1z"/>
<path id="b53ad979-99f4-4c6e-a0f8-957060c42096" class="st5" d="M69.6,273.4c-0.9,1-1.6,2.1-2.1,3.3c-7.5,17-12,35.2-13.2,53.8
	c0,0.9-0.2,1.8-0.6,2.6c-0.4,0.5-0.9,1-1.4,1.5c-1.8,2.2-1.6,5.4,0.6,7.3c0.1,0.1,0.2,0.1,0.3,0.2c1.5-2.9,5.2-3.8,8.5-4.1
	c15.7-1.2,31,6.1,46.8,5.5c-1.1-3.8-2.7-7.5-3.6-11.4c-4-17.3,6-36-0.1-52.6c-1.2-3.3-3.3-6.6-6.5-8.1c-1.3-0.5-2.7-0.9-4.2-1.1
	c-4-0.7-11.9-3.8-15.7-2.6c-1.4,0.5-2,1.8-3.2,2.6C73.5,271.5,71.1,271.9,69.6,273.4z"/>
<path id="a1197c30-bfd4-4098-bcf9-2468e7a33bf1" class="st6" d="M287.7,330.4c-4.7-2-13.7-0.8-18.9-0.9c-7.1-0.2-14.7,0.6-20.5,4.7
	c-7.1,5-10.4,14.1-10.3,22.8c0.1,8.7,3,17,6.1,25.1c1.7,4.6,3.6,9.1,4.2,13.9c0,0-62.1,7.4-65.9,10.4s-5.4,9.1-2.5,12.8
	s92.6,7.5,104.4,5c2.1,0.1,3.8-1.6,3.8-3.6c1.2-7,2.2-13.9,2.8-21c0.3-3.6,0.6-7.2,0.8-10.9l2.7-38.5c0.3-2.7,0.3-5.5-0.1-8.2
	C293.6,338.3,291.4,332.1,287.7,330.4z"/>
<path id="ebe46053-6aac-4aa7-8615-21a6fa79538d" class="st5" d="M273,270.3c-1.2-0.8-1.7-2.1-3.2-2.6c-3.8-1.2-11.8,1.8-15.7,2.6
	c-1.4,0.2-2.8,0.6-4.2,1.1c-3.2,1.5-5.3,4.7-6.5,8.1c-6.1,16.6,3.9,35.4-0.1,52.6c-0.9,3.9-2.5,7.6-3.6,11.4
	c15.7,0.6,31.1-6.8,46.8-5.5c3.3,0.3,7,1.2,8.5,4.1c0.1-0.1,0.2-0.1,0.3-0.2c2.2-1.8,2.5-5.1,0.6-7.3c-0.5-0.5-1-1-1.4-1.5
	c-0.4-0.8-0.6-1.7-0.6-2.6c-1.2-18.6-5.6-36.8-13.2-53.8c-0.5-1.2-1.2-2.4-2.1-3.3C277.1,271.9,274.8,271.5,273,270.3z"/>
<polygon class="st2" points="299.2,523.4 296.5,543.9 216,543.2 220,512.8 "/>
<path class="st3" d="M319.9,520.8L311,587l-0.8-0.1c-14.2-1.9-24.2-15-22.4-29.2l0,0l5.4-40.5L319.9,520.8z"/>
<path id="a0b0f7ea-4ed9-4447-aa64-e2335b2c3196" class="st3" d="M109.8,439.5c0,0.9-1.5,0-1.6-1c-1-7.6-7-13.8-14-16.8
	s-14.9-3.2-22.5-2.5c-11.4,1.1-24.3,5.5-28.5,16.2c-1,2.5-10.3,24.8-9.4,29.8c2.4,13.4,11.6,24.8,22.6,32.7s24,12.6,36.9,16.9
	c34.1,11.2,69.1,19.6,104.6,25c5.8,0.9,11.6,1.7,17.1,3.5c4.9,1.7,9.5,4.1,14.4,6.1c11.2,4.5,23.3,6.1,35.2,7.7
	c2,0.3,4.4,0.4,5.9-0.9c1.9-1.8,1.3-4.9,0.7-7.5c-2-9.8-0.3-20.1,4.8-28.7c2-3.4,4.6-6.8,4.2-10.7c-0.4-4.5-5-7.8-9.5-8.5
	s-9.1,0.3-13.6,0.9c-1.5,0.4-3.2,0.2-4.6-0.5c-0.7-0.5-1.3-1-1.8-1.6c-6.4-6.2-16-7.5-23.9-3.3c-1.7,0.9-4.2-1.1-5.9-1.9l-19.6-8.9
	c-22.6-10.2-45.2-20.5-69.1-26.9c-1.9-0.4-3.7-1.1-5.3-2.2c-1.2-0.9-2-2.2-3.1-3.2c-2.4-2.3-5.7-3.1-8.6-4.7
	S109.1,442.7,109.8,439.5z"/>
<circle class="st6" cx="160.6" cy="412" r="14"/>
<circle class="st6" cx="191.6" cy="412" r="14"/>
<path class="st7" d="M278,443.5H85.7c-4.7,0-8.5-3.8-8.5-8.5V318.4c0-4.7,3.8-8.5,8.5-8.5H278c4.7,0,8.5,3.8,8.5,8.5v116.7
	C286.5,439.7,282.7,443.5,278,443.5z"/>
<circle id="e793da3b-cee2-4a15-ae11-6dab45a6c728" class="st8" cx="181.4" cy="376.7" r="5.6"/>
<path class="st7" d="M868,210.5H618.1c-2.8,0-5-2.2-5-5v-47.1h2v47.1c0,1.7,1.3,3,3,3H868c1.7,0,3-1.3,3-3V158h2v47.4
	C873,208.2,870.8,210.4,868,210.5z"/>
<rect x="371.4" y="157.4" class="st7" width="587.2" height="2"/>
<circle id="a67a4451-c7cc-402c-b29d-5a705f3c9418" class="st5" cx="371.4" cy="158.2" r="17.2"/>
<circle id="abdb3fbf-f68e-433e-a33f-153626b38c76" class="st5" cx="546.2" cy="158.2" r="17.2"/>
<circle id="ac293633-0933-4e21-a8aa-bc27ca4fbccc" class="st7" cx="664.9" cy="208.8" r="17.2"/>
<circle id="a0cd768d-b738-4d4b-9ab3-78ab535c7573" class="st9" cx="755.1" cy="208.8" r="17.2"/>
<circle id="b9eb3d2e-31e0-4fe2-be5c-79abb86bc227" class="st5" cx="711.4" cy="158.2" r="17.2"/>
<circle id="aa04baac-fce0-420a-b86a-4a97f3079928" class="st5" cx="956.3" cy="158.2" r="17.2"/>
<circle id="e92cf92c-058e-415c-ba96-766a57ee18d9" class="st5" cx="872" cy="158.2" r="17.2"/>
<rect id="ac5bf8cc-574d-4509-9338-881c836fd832" x="648.5" class="st7" width="31.9" height="22"/>
<rect id="ad5a043d-52f1-4931-b771-e4991ef7f7f7" x="355.6" class="st5" width="31.9" height="22"/>
<rect id="e5d95e83-bdd9-4322-95a9-5a9c4b449a8f" x="463.7" class="st9" width="31.9" height="22"/>
<path class="st7" d="M424.8,159.4c-0.6,0-1-0.4-1-1V109c0-2.8,2.2-5,5-5h48.7c0.6,0,1,0.4,1,1s-0.4,1-1,1h-48.7c-1.7,0-3,1.3-3,3
	v49.4C425.8,158.9,425.3,159.4,424.8,159.4z"/>
<circle id="b0a7c1c1-8f27-441f-a84a-e44462cc473e" class="st10" cx="479.7" cy="104.6" r="17.2"/>
<path class="st7" d="M809.8,158.4h-2V109c0-2.8,2.2-5,5-5h48.7v2h-48.7c-1.7,0-3,1.3-3,3V158.4z"/>
<circle id="b3140cf1-cdb8-48ff-81af-ce41ed4f5739" class="st10" cx="863.7" cy="104.6" r="17.2"/>
</svg>
