<?xml version="1.0" encoding="utf-8"?>
<!-- Generator: Adobe Illustrator 25.4.1, SVG Export Plug-In . SVG Version: 6.00 Build 0)  -->
<svg version="1.1" id="b19d21a7-7bc0-44bd-ab2a-ad7473c6bec7"
	 xmlns="http://www.w3.org/2000/svg" xmlns:xlink="http://www.w3.org/1999/xlink" x="0px" y="0px" viewBox="0 0 979.3 424.8"
	 style="enable-background:new 0 0 979.3 424.8;" xml:space="preserve">
<style type="text/css">
	.st0{fill:#CCCCCC;}
	.st1{fill:#F2F2F2;}
	.st2{fill:#8E283D;}
	.st3{fill:#3F3D56;}
	.st4{fill:#FFFFFF;}
	.st5{fill:#E6E6E6;}
	.st6{fill:#FFB6B6;}
	.st7{fill:#E4E4E4;}
	.st8{fill:#2F2E41;}
</style>
<path class="st0" d="M883.4,175.3H308.8c-5.1,0-9.2,4.1-9.2,9.2s4.1,9.2,9.2,9.2h16.3v220.1c0,5.1,4.1,9.2,9.2,9.2s9.2-4.1,9.2-9.2
	l0.1-220.1h461.2l42.5,220.1c0,5.1,4.1,9.2,9.2,9.2c5.1,0,9.2-4.1,9.2-9.2l2.7-220.1h15c5.1,0,9.2-4.1,9.2-9.2
	S888.5,175.3,883.4,175.3L883.4,175.3z"/>
<path class="st1" d="M408.4,134.3v39h-97.6c-10.8,0.4-19.8-8-20.2-18.8c-0.4-10.8,8-19.8,18.8-20.2c0.5,0,0.9,0,1.4,0H408.4z"/>
<path class="st2" d="M410.8,172.9c0,0.8-0.7,1.5-1.5,1.5H309.1c-11.3,0-20.5-9.2-20.5-20.5s9.2-20.5,20.5-20.5h100.2
	c0.8,0,1.5,0.7,1.5,1.5s-0.7,1.5-1.5,1.5l0,0H309.1c-9.7,0-17.5,7.9-17.5,17.6c0,9.7,7.8,17.5,17.5,17.5h100.2
	C410.1,171.4,410.8,172.1,410.8,172.9z"/>
<path class="st0" d="M408.4,143.3H303.5c-0.2,0-0.3-0.1-0.3-0.3s0.1-0.3,0.3-0.3l0,0h104.9c0.2,0,0.3,0.1,0.3,0.3
	C408.7,143.1,408.6,143.3,408.4,143.3z"/>
<path class="st0" d="M408.4,150.4H303.5c-0.2,0-0.3-0.1-0.3-0.3s0.1-0.3,0.3-0.3l0,0h104.9c0.2,0,0.3,0.1,0.3,0.3
	C408.7,150.3,408.6,150.4,408.4,150.4z"/>
<path class="st0" d="M408.4,157.6H303.5c-0.2,0-0.3-0.1-0.3-0.3s0.1-0.3,0.3-0.3l0,0h104.9c0.2,0,0.3,0.1,0.3,0.3
	C408.7,157.5,408.6,157.6,408.4,157.6z"/>
<path class="st0" d="M408.4,164.8H303.5c-0.2,0-0.3-0.1-0.3-0.3s0.1-0.3,0.3-0.3h104.9c0.2,0,0.3,0.1,0.3,0.3
	C408.7,164.7,408.6,164.8,408.4,164.8z"/>
<path class="st1" d="M390,93.2v39h-97.6c-10.8,0.4-19.8-8-20.2-18.8c-0.4-10.8,8-19.8,18.8-20.2c0.5,0,0.9,0,1.4,0H390z"/>
<path class="st3" d="M392.4,131.9c0,0.8-0.7,1.5-1.5,1.5H290.7c-11.3,0-20.5-9.2-20.5-20.5s9.2-20.5,20.5-20.5h100.2
	c0.8,0,1.5,0.7,1.5,1.5s-0.7,1.5-1.5,1.5H290.7c-9.7,0-17.5,7.9-17.5,17.5c0,9.7,7.8,17.5,17.5,17.5h100.2
	C391.7,130.4,392.4,131.1,392.4,131.9z"/>
<path class="st0" d="M390,102.2H285.1c-0.2,0-0.3-0.1-0.3-0.3c0-0.2,0.1-0.3,0.3-0.3l0,0H390c0.2,0,0.3,0.1,0.3,0.3
	S390.2,102.2,390,102.2z"/>
<path class="st0" d="M390,109.4H285.1c-0.2,0-0.3-0.1-0.3-0.3c0-0.2,0.1-0.3,0.3-0.3l0,0H390c0.2,0,0.3,0.1,0.3,0.3
	S390.2,109.4,390,109.4z"/>
<path class="st0" d="M390,116.6H285.1c-0.2,0-0.3-0.1-0.3-0.3c0-0.2,0.1-0.3,0.3-0.3l0,0H390c0.2,0,0.3,0.1,0.3,0.3
	S390.2,116.6,390,116.6z"/>
<path class="st0" d="M390,123.8H285.1c-0.2,0-0.3-0.1-0.3-0.3c0-0.2,0.1-0.3,0.3-0.3l0,0H390c0.2,0,0.3,0.1,0.3,0.3
	C390.3,123.7,390.2,123.8,390,123.8z"/>
<path class="st0" d="M503.5,313.1v-34c0-3.1-2.5-5.7-5.7-5.7H369.1c-3.1,0-5.7,2.5-5.7,5.7v34H503.5z"/>
<rect x="363.4" y="325.8" class="st0" width="140.1" height="43.9"/>
<path class="st0" d="M363.4,382.4v34c0,3.1,2.5,5.7,5.7,5.7h128.8c3.1,0,5.7-2.5,5.7-5.7v-34H363.4z"/>
<circle class="st4" cx="432.8" cy="294.7" r="4.2"/>
<circle class="st4" cx="432.8" cy="351.3" r="4.2"/>
<circle class="st4" cx="433" cy="406.7" r="4.2"/>
<path class="st1" d="M487.7,234.7v39h-97.6c-10.8,0.4-19.8-8-20.2-18.8c-0.4-10.8,8-19.8,18.8-20.2c0.5,0,0.9,0,1.4,0L487.7,234.7
	L487.7,234.7z"/>
<path class="st3" d="M490,273.4c0,0.8-0.7,1.5-1.5,1.5H388.3c-11.3,0-20.5-9.2-20.5-20.5c0-11.3,9.2-20.5,20.5-20.5l0,0h100.3
	c0.8,0,1.5,0.7,1.5,1.5s-0.7,1.5-1.5,1.5l0,0H388.3c-9.7,0-17.5,7.9-17.5,17.6s7.8,17.5,17.5,17.5h100.2
	C489.4,271.9,490,272.6,490,273.4z"/>
<path class="st0" d="M487.7,243.7H382.8c-0.2,0-0.3-0.1-0.3-0.3s0.1-0.3,0.3-0.3l0,0h104.9c0.2,0,0.3,0.1,0.3,0.3
	C487.9,243.6,487.8,243.7,487.7,243.7L487.7,243.7z"/>
<path class="st0" d="M487.7,250.9H382.8c-0.2,0-0.3-0.1-0.3-0.3s0.1-0.3,0.3-0.3l0,0h104.9c0.2,0,0.3,0.1,0.3,0.3
	C487.9,250.8,487.8,250.9,487.7,250.9L487.7,250.9z"/>
<path class="st0" d="M487.7,258.1H382.8c-0.2,0-0.3-0.1-0.3-0.3c0-0.2,0.1-0.3,0.3-0.3h104.9c0.2,0,0.3,0.1,0.3,0.3
	C487.9,258,487.8,258.1,487.7,258.1L487.7,258.1z"/>
<path class="st0" d="M487.7,265.3H382.8c-0.2,0-0.3-0.1-0.3-0.3c0-0.2,0.1-0.3,0.3-0.3l0,0h104.9c0.2,0,0.3,0.1,0.3,0.3
	C487.9,265.2,487.8,265.3,487.7,265.3L487.7,265.3z"/>
<path class="st3" d="M373,80.2h-44.5c-0.4,0-0.8,0.1-1.2,0.3l-11.2,5.6c-1,0.4-1.5,1.6-1.1,2.7c0.2,0.5,0.6,0.9,1.1,1.1l11.2,5.6
	c0.4,0.2,0.8,0.3,1.2,0.3H373c1.3,0.1,2.4-0.9,2.5-2.2V82.4C375.4,81.1,374.3,80.2,373,80.2z"/>
<path class="st2" d="M375.5,82.4v11.2c-0.1,1.3-1.2,2.2-2.5,2.2h-8.9V80.2h8.9C374.3,80.2,375.4,81.1,375.5,82.4z"/>
<path class="st5" d="M106.4,300.4c11.6,4.1,24.6,1.8,34.1-6c12-10,15.7-26.6,18.7-41.9c3-15.1,6-30.2,9-45.3l-18.9,13
	c-13.6,9.3-27.5,19-36.9,32.5c-9.4,13.5-13.5,32-6,46.7"/>
<path class="st1" d="M108.1,355.2c-1.9-13.9-3.9-28-2.5-42.1c1.2-12.5,5-24.7,12.8-34.7c4.1-5.3,9.1-9.8,14.8-13.4
	c1.5-0.9,2.8,1.4,1.4,2.3c-9.8,6.2-17.4,15.4-21.7,26.2c-4.7,12-5.5,25.1-4.7,37.9c0.5,7.7,1.5,15.4,2.6,23.1
	c0.2,0.7-0.2,1.4-0.9,1.7C109,356.4,108.3,355.9,108.1,355.2L108.1,355.2z"/>
<path class="st5" d="M126.5,330.6c5,7.6,13.6,12,22.7,11.7c11.5-0.5,21-8.6,29.7-16.2l25.5-22.5l-16.9-0.8
	c-12.1-0.6-24.6-1.1-36.1,2.6s-22.2,12.7-24.3,24.7"/>
<path class="st1" d="M102.7,363.2c9.2-16.3,19.9-34.4,38.9-40.1c5.3-1.6,10.9-2.2,16.4-1.7c1.7,0.1,1.3,2.8-0.4,2.7
	c-9.2-0.8-18.5,1.7-26.1,6.9c-7.4,5-13.1,12-18,19.4c-3,4.5-5.6,9.3-8.3,14C104.3,365.8,101.8,364.7,102.7,363.2L102.7,363.2z"/>
<path class="st1" d="M87.9,380.4c0.6-7.3,5.3-13.7,12.1-16.5v-9.4h15.8v9.7c6.4,3,10.8,9.1,11.4,16.2l3.7,43.1H84.2L87.9,380.4z"/>
<path class="st5" d="M624.6,174.4l-4.7-2l-3.2-23.5h-42.9l-3.5,23.4l-4.2,2.1c-0.5,0.2-0.7,0.8-0.4,1.3c0.2,0.3,0.5,0.6,0.9,0.6
	h57.7c0.6,0,1-0.4,1-1C625.2,174.9,625,174.5,624.6,174.4z"/>
<path class="st0" d="M700.9,152H490.2c-2.3,0-4.2-1.9-4.2-4.2v-29.7h219v29.7C705,150.1,703.2,152,700.9,152z"/>
<path class="st3" d="M705.2,132.2H485.8V5c0-2.8,2.3-5,5-5h209.4c2.8,0,5,2.3,5,5L705.2,132.2z"/>
<path class="st4" d="M692.1,122.9H498.9c-2.1,0-3.9-1.7-3.9-3.9V13.1c0-2.1,1.7-3.9,3.9-3.9h193.2c2.1,0,3.9,1.7,3.9,3.9V119
	C696,121.2,694.3,122.9,692.1,122.9z"/>
<path class="st6" d="M641.2,160.3c4.7-4.4,12.1-4.1,16.4,0.7c0.5,0.5,0.9,1,1.3,1.6L685,158l6.7,15.2l-37,6
	c-5.7,3.1-12.8,1-15.9-4.6C636.3,169.8,637.3,163.9,641.2,160.3z"/>
<path class="st2" d="M665.4,179.7l27.2-0.3h3.4l55.4-0.7c0,0,15.1-14.4,28.2-29.1l-1.8-13.3c-1.8-13-8.3-25-18.2-33.6
	c-18.8,12.5-29.7,37.4-29.7,37.4l-34.4,8.2l-3.4,0.8l-21.4,5.1L665.4,179.7z"/>
<path class="st7" d="M804.9,261.4H754c0,2.2-55.6,3.9-55.6,3.9c-1.2,0.9-2.3,2-3.3,3.2c-3,3.5-4.6,8-4.6,12.6v3.2
	c0,10.9,8.8,19.7,19.7,19.7h94.6c10.9,0,19.7-8.8,19.7-19.7v-3.2C824.6,270.2,815.8,261.4,804.9,261.4z"/>
<rect x="747.4" y="303.2" class="st7" width="20.5" height="118.5"/>
<path class="st7" d="M689,421c0,2.2,31.1,0.9,69.5,0.9s69.5,1.4,69.5-0.9s-31.1-19.8-69.5-19.8S689,418.8,689,421z"/>
<polygon class="st6" points="675.2,407.5 659.9,407.5 652.6,348.5 675.2,348.5 "/>
<path class="st8" d="M679.1,422.3h-49.3v-0.6c0-10.6,8.6-19.2,19.2-19.2l0,0h30.1V422.3z"/>
<polygon class="st6" points="630,407.5 614.8,407.5 607.5,348.5 630,348.5 "/>
<path class="st8" d="M633.9,422.3h-49.3v-0.6c0-10.6,8.6-19.2,19.2-19.2l0,0h30.1V422.3z"/>
<circle class="st6" cx="766.9" cy="41.6" r="26.6"/>
<path class="st8" d="M809.9,223.6c0,0,8.9,47.1-25,53.1C751,282.8,702,287,702,287l-22,102.6l-29.5-2.6c0,0,3.9-123.5,13.6-133.1
	s70.7-38.6,70.7-38.6L809.9,223.6z"/>
<path class="st8" d="M743.6,203.9l-14.8,14.9c0,0-107.1,17.2-111.2,42c-6.2,37.3-13.6,118.6-13.6,118.6l32.2-2.4l12.6-92.3
	l51.5-11.7l58.6-31.9L743.6,203.9z"/>
<path class="st8" d="M792.4,25.8c-2.6-4.9-6-14.8-11.2-16.6c-2.9-1-6-1.6-9.1-1.9l-9,3.5L768,7c-1-0.1-1.9-0.1-2.9-0.1L759,9.2
	l3.1-2.4c-5.7-0.1-11.5,0.5-15.9,4c-3.7,2.9-7.4,14.1-8,18.8c-0.6,4.5-0.4,9.1,0.7,13.5l1.5,1.5c0.5-1.2,0.9-2.5,1.2-3.8
	c1.1-5,4.3-9.3,8.7-11.8h0.1c2.6-1.5,5.7-1.4,8.7-1.3l14,0.5c3.4,0.1,7,0.3,9.6,2.5c1.7,1.6,3,3.5,3.9,5.6
	c1.3,2.6,3.9,12.6,3.9,12.6s1.4-1.9,2.1-0.5c1.1-3.7,1.8-7.4,2-11.2C794.9,33,794.2,29.2,792.4,25.8z"/>
<path class="st6" d="M885.4,53.3c-6.4,0.4-11.2,6-10.8,12.4c0,0.7,0.2,1.4,0.3,2l-21.4,15.8l6.4,15.3l29.9-22.7
	c6.1-2,9.5-8.5,7.6-14.7C895.7,56.3,890.7,52.9,885.4,53.3L885.4,53.3z"/>
<path class="st2" d="M881.9,85.5L828.3,145c0,0-25.6-8.2-45.4-17.1l-8.9-27.3c-2.1-6.3-2.9-13-2.6-19.7
	c27.5-7.3,59.4,19.9,59.4,19.9l40.1-31.4L881.9,85.5z"/>
<path class="st2" d="M757,228c-9.6-3.3-19.4-6.7-30.1-8l-0.5-0.1l0.1-0.4c11-38.7,8.3-63.5,2.9-100.7c-2.4-16.5,6.4-32.6,21.5-39.5
	h0.1l30.4-1.9h0.1l22.1,6.5c6.5,1.9,11,8,10.9,14.8c-0.2,12.2,0.3,25.9,0.8,40.4c1.2,32.5,2.5,66-4.6,87.8v0.1l-0.1,0.1
	c-6.5,5.3-14.7,8.2-23.1,8.1C777.6,235.2,767.4,231.6,757,228z"/>
<path class="st0" d="M977.9,424.8H1.4c-0.8,0-1.4-0.6-1.4-1.4s0.6-1.4,1.4-1.4h976.5c0.8,0,1.4,0.6,1.4,1.4S978.7,424.8,977.9,424.8
	z"/>
</svg>
