<?xml version="1.0" encoding="utf-8"?>
<!-- Generator: Adobe Illustrator 25.4.1, SVG Export Plug-In . SVG Version: 6.00 Build 0)  -->
<svg version="1.1" id="b954c258-ebd6-43b8-aaa6-ec167673194d"
	 xmlns="http://www.w3.org/2000/svg" xmlns:xlink="http://www.w3.org/1999/xlink" x="0px" y="0px" viewBox="0 0 866.3 605.7"
	 style="enable-background:new 0 0 866.3 605.7;" xml:space="preserve">
<style type="text/css">
	.st0{fill:#FFB8B8;}
	.st1{fill:#3F3D56;}
	.st2{fill:#2F2E41;}
	.st3{fill:#8E283D;}
	.st4{fill:#E6E6E6;}
	.st5{fill:#FFFFFF;}
</style>
<path class="st0" d="M731.5,420.7c-3.4-3.7-3.1-9.5,0.6-12.9c0.4-0.4,0.8-0.7,1.3-1l-7.3-31.7L742,381l4.5,29.2
	c2.4,4.5,0.7,10-3.8,12.5C738.9,424.6,734.3,423.8,731.5,420.7L731.5,420.7z"/>
<path class="st1" d="M730.4,395.5l-13.9-26.9l1.9-67.7l0.9,1.9c1,2.2,25.4,53.8,23.7,71.1l2.8,15.8L730.4,395.5z"/>
<polygon class="st0" points="721.3,594.2 732.5,594.2 737.8,551.2 721.3,551.2 "/>
<path class="st2" d="M718.5,590.6l22,0h0c7.7,0,14,6.3,14,14v0.5l-36,0L718.5,590.6z"/>
<polygon class="st0" points="611.1,585.7 621.9,588.7 638.5,548.7 622.7,544.3 "/>
<path class="st2" d="M609.4,581.5l21.2,5.9l0,0c7.4,2.1,11.8,9.8,9.7,17.2l-0.1,0.4l-34.6-9.6L609.4,581.5z"/>
<path class="st2" d="M710.2,577.4l-22.5-161.1l-48.6,160.2l-38.2-13l54.8-214.5l0.4,0l57.4-4l41.5,219.5L710.2,577.4z"/>
<path class="st3" d="M704.2,273c0,0-20.9-10.9-49.1-6.4c0,0-15,36.2,0,50.6l4.1,36.2c0,0,38.2,22.7,50.9-3.6l-1.8-30
	c0,0,9.1-14.4,1.8-24.9C705.8,288.5,703.7,280.8,704.2,273z"/>
<path class="st1" d="M706.9,437.9l3.7-76.2L700.2,271l0.5-0.1c13.6-2.1,18,21.4,18.2,22.4l23.7,134.1L706.9,437.9z"/>
<path class="st1" d="M660.6,438.7l-41.9-4.7l0-0.5c0.1-6.2,3.8-152.2,13.9-162.5c10.2-10.4,29.4-5.9,30.2-5.7l0.4,0.1l-3.5,61.8
	L660.6,438.7z"/>
<path class="st0" d="M668.4,351.4c-4.8,1.6-10-1-11.5-5.8c-0.2-0.5-0.3-1-0.4-1.6l-31.9-6.2l11.8-12l28.5,7.8
	c5.1-0.4,9.5,3.4,9.9,8.5C675,346.2,672.4,350.1,668.4,351.4L668.4,351.4z"/>
<path class="st1" d="M651.3,344.1l-10.4-2.2c-15.3,4.6-42.1-11.6-52.9-18.8c-2-1.4-2.7-4-2-8c1.1-5.5,4.1-10.5,8.6-13.9l38.1-30.2
	l9.6-1.6l2.9,16.2l-24.3,26.1l35.8,19.5L651.3,344.1z"/>
<path class="st2" d="M647.2,252.9v-21c0-18.5,15-33.5,33.5-33.5s33.5,15,33.5,33.5v21c0,2.5-2,4.5-4.5,4.5h-58
	C649.2,257.4,647.2,255.4,647.2,252.9z"/>
<circle class="st0" cx="679.4" cy="232.7" r="24.6"/>
<path class="st2" d="M654.1,232.6c-0.5-0.5-0.7-1.3-0.6-2l2.9-20.3c0.1-0.8,0.6-1.6,1.4-1.9c14.9-7,29.9-7,44.8,0
	c0.8,0.4,1.3,1.2,1.4,2l1.9,20.3c0.1,1.4-0.9,2.6-2.2,2.7c-0.1,0-0.2,0-0.2,0h-4.9c-1,0-1.9-0.6-2.3-1.4l-2.1-4.6
	c-0.4-0.8-1.2-1.1-2-0.7c-0.5,0.2-0.8,0.7-0.9,1.2l-0.4,3.4c-0.2,1.3-1.2,2.2-2.5,2.2H656C655.3,233.4,654.6,233.1,654.1,232.6z"/>
<rect y="40.4" class="st4" width="551" height="343.1"/>
<rect x="36.9" y="106.5" class="st5" width="100.9" height="65.6"/>
<rect x="162.3" y="106.5" class="st5" width="100.9" height="65.6"/>
<rect x="287.7" y="106.5" class="st5" width="100.9" height="65.6"/>
<rect x="413.1" y="106.5" class="st5" width="100.9" height="65.6"/>
<rect x="36.9" y="199.3" class="st5" width="100.9" height="65.6"/>
<rect x="162.3" y="199.3" class="st5" width="100.9" height="65.6"/>
<rect x="287.7" y="199.3" class="st5" width="100.9" height="65.6"/>
<rect x="413.1" y="199.3" class="st5" width="100.9" height="65.6"/>
<rect x="36.9" y="292.2" class="st5" width="100.9" height="65.6"/>
<rect x="162.3" y="292.2" class="st5" width="100.9" height="65.6"/>
<rect x="287.7" y="292.2" class="st5" width="100.9" height="65.6"/>
<rect x="413.1" y="292.2" class="st5" width="100.9" height="65.6"/>
<circle class="st5" cx="144.3" cy="65.6" r="15.1"/>
<circle class="st5" cx="394.6" cy="65.6" r="15.1"/>
<rect x="138.3" class="st4" width="12.1" height="69.6"/>
<rect x="388.5" class="st4" width="12.1" height="69.6"/>
<path class="st3" d="M486.4,139.3c0,12.6-10.2,22.7-22.8,22.7c-12.6,0-22.7-10.2-22.7-22.8c0-12.6,10.2-22.7,22.8-22.7
	c7.8,0,15,4,19.2,10.6C485.2,130.7,486.4,134.9,486.4,139.3z"/>
<path class="st5" d="M482.9,127.1l-22.5,22.5c-1.4-2.2-9.3-12.3-9.3-12.3c1-1,2.1-2,3.2-2.8l6.5,8.7l19.4-19.4
	C481.2,124.7,482.1,125.9,482.9,127.1z"/>
<path class="st3" d="M235.6,232.1c0,12.6-10.2,22.7-22.8,22.7c-12.6,0-22.7-10.2-22.7-22.8c0-12.6,10.2-22.7,22.8-22.7
	c7.8,0,15,4,19.2,10.6C234.4,223.6,235.6,227.8,235.6,232.1z"/>
<path class="st5" d="M232.1,219.9l-22.5,22.5c-1.4-2.2-9.3-12.3-9.3-12.3c1-1,2.1-2,3.2-2.8l6.5,8.7l19.4-19.4
	C230.4,217.6,231.3,218.7,232.1,219.9z"/>
<path class="st3" d="M110.2,232.1c0,12.6-10.2,22.7-22.8,22.7c-12.6,0-22.7-10.2-22.7-22.8c0-12.6,10.2-22.7,22.8-22.7
	c7.8,0,15,4,19.2,10.6C109,223.6,110.2,227.8,110.2,232.1z"/>
<path class="st5" d="M106.7,219.9l-22.5,22.5C82.8,240.2,75,230,75,230c1-1,2.1-2,3.2-2.8l6.5,8.7l19.4-19.4
	C105.1,217.6,105.9,218.7,106.7,219.9z"/>
<path class="st1" d="M865.3,605.7h-381c-0.6,0-1-0.4-1-1c0-0.6,0.4-1,1-1h381c0.6,0,1,0.4,1,1C866.3,605.3,865.9,605.7,865.3,605.7z
	"/>
</svg>
