<?xml version="1.0" encoding="utf-8"?>
<!-- Generator: Adobe Illustrator 25.4.1, SVG Export Plug-In . SVG Version: 6.00 Build 0)  -->
<svg version="1.1" id="b326ab2b-d71b-40ff-978b-a3c211b51f5c"
	 xmlns="http://www.w3.org/2000/svg" xmlns:xlink="http://www.w3.org/1999/xlink" x="0px" y="0px" viewBox="0 0 1026.8 841.9"
	 style="enable-background:new 0 0 1026.8 841.9;" xml:space="preserve">
<style type="text/css">
	.st0{fill:#3F3D56;}
	.st1{fill:#491A24;}
	.st2{fill:#FFFFFF;}
	.st3{fill:#FFB8B8;}
	.st4{fill:#2F2E41;}
	.st5{fill:#D0CDE1;}
	.st6{opacity:0.1;enable-background:new    ;}
</style>
<path class="st0" d="M71.6,701.5l-1.1-0.4c-0.2-0.1-23.7-9.1-34.7-29.5c-11-20.4-5.6-44.9-5.6-45.2l0.3-1.1l1.1,0.4
	c0.2,0.1,23.7,9.1,34.7,29.5c11,20.4,5.6,44.9,5.6,45.2L71.6,701.5z M37.5,670.7c9.3,17.2,27.8,26.1,32.5,28.1
	c0.9-5,3.7-25.4-5.6-42.6c-9.3-17.2-27.8-26.1-32.5-28.1C31.1,633.1,28.3,653.5,37.5,670.7z"/>
<path class="st1" d="M44.2,665.5C63.9,677.4,71.6,701,71.6,701s-24.4,4.3-44.2-7.5S0,657.9,0,657.9S24.4,653.6,44.2,665.5z"/>
<rect x="167.3" y="28.2" class="st0" width="605" height="646"/>
<path class="st0" d="M789.8,702.5h-640c-5,0-9-4-9-9V9c0-5,4-9,9-9h640c5,0,9,4,9,9v684.5C798.8,698.5,794.7,702.5,789.8,702.5z
	 M149.8,2c-3.9,0-7,3.1-7,7v684.5c0,3.9,3.1,7,7,7h640c3.9,0,7-3.1,7-7V9c0-3.9-3.1-7-7-7H149.8z"/>
<path class="st2" d="M690.3,659h-440c-5,0-9-4-9-9v-72c0-5,4-9,9-9h440c5,0,9,4,9,9v72C699.3,655,695.2,659,690.3,659z M250.3,571
	c-3.9,0-7,3.1-7,7v72c0,3.9,3.1,7,7,7h440c3.9,0,7-3.1,7-7v-72c0-3.9-3.1-7-7-7H250.3z"/>
<path class="st2" d="M350.3,647h-54c-3.3,0-6-2.7-6-6v-54c0-3.3,2.7-6,6-6h54c3.3,0,6,2.7,6,6v54C356.3,644.3,353.6,647,350.3,647z
	 M296.3,583c-2.2,0-4,1.8-4,4v54c0,2.2,1.8,4,4,4h54c2.2,0,4-1.8,4-4v-54c0-2.2-1.8-4-4-4H296.3z"/>
<path class="st2" d="M448.3,647h-54c-3.3,0-6-2.7-6-6v-54c0-3.3,2.7-6,6-6h54c3.3,0,6,2.7,6,6v54C454.3,644.3,451.6,647,448.3,647z
	 M394.3,583c-2.2,0-4,1.8-4,4v54c0,2.2,1.8,4,4,4h54c2.2,0,4-1.8,4-4v-54c0-2.2-1.8-4-4-4H394.3z"/>
<path class="st2" d="M546.3,647h-54c-3.3,0-6-2.7-6-6v-54c0-3.3,2.7-6,6-6h54c3.3,0,6,2.7,6,6v54C552.3,644.3,549.6,647,546.3,647z
	 M492.3,583c-2.2,0-4,1.8-4,4v54c0,2.2,1.8,4,4,4h54c2.2,0,4-1.8,4-4v-54c0-2.2-1.8-4-4-4H492.3z"/>
<path class="st2" d="M644.3,647h-54c-3.3,0-6-2.7-6-6v-54c0-3.3,2.7-6,6-6h54c3.3,0,6,2.7,6,6v54C650.3,644.3,647.6,647,644.3,647z
	 M590.3,583c-2.2,0-4,1.8-4,4v54c0,2.2,1.8,4,4,4h54c2.2,0,4-1.8,4-4v-54c0-2.2-1.8-4-4-4H590.3z"/>
<path class="st2" d="M246.8,109h54c2.8,0,5,2.2,5,5v54c0,2.8-2.2,5-5,5h-54c-2.8,0-5-2.2-5-5v-54C241.8,111.2,244,109,246.8,109z"/>
<path class="st2" d="M344.8,109h54c2.8,0,5,2.2,5,5v54c0,2.8-2.2,5-5,5h-54c-2.8,0-5-2.2-5-5v-54C339.8,111.2,342,109,344.8,109z"/>
<path class="st2" d="M442.8,109h54c2.8,0,5,2.2,5,5v54c0,2.8-2.2,5-5,5h-54c-2.8,0-5-2.2-5-5v-54C437.8,111.2,440,109,442.8,109z"/>
<path class="st2" d="M540.8,109h54c2.8,0,5,2.2,5,5v54c0,2.8-2.2,5-5,5h-54c-2.8,0-5-2.2-5-5v-54C535.8,111.2,538,109,540.8,109z"/>
<path class="st2" d="M638.8,109h54c2.8,0,5,2.2,5,5v54c0,2.8-2.2,5-5,5h-54c-2.8,0-5-2.2-5-5v-54C633.8,111.2,636,109,638.8,109z"/>
<path class="st2" d="M247.3,241h54c2.8,0,5,2.2,5,5v54c0,2.8-2.2,5-5,5h-54c-2.8,0-5-2.2-5-5v-54C242.3,243.2,244.5,241,247.3,241z"
	/>
<path class="st2" d="M345.3,241h54c2.8,0,5,2.2,5,5v54c0,2.8-2.2,5-5,5h-54c-2.8,0-5-2.2-5-5v-54C340.3,243.2,342.5,241,345.3,241z"
	/>
<path class="st2" d="M443.3,241h54c2.8,0,5,2.2,5,5v54c0,2.8-2.2,5-5,5h-54c-2.8,0-5-2.2-5-5v-54C438.3,243.2,440.5,241,443.3,241z"
	/>
<path class="st2" d="M541.3,241h54c2.8,0,5,2.2,5,5v54c0,2.8-2.2,5-5,5h-54c-2.8,0-5-2.2-5-5v-54C536.3,243.2,538.5,241,541.3,241z"
	/>
<path class="st2" d="M639.3,241h54c2.8,0,5,2.2,5,5v54c0,2.8-2.2,5-5,5h-54c-2.8,0-5-2.2-5-5v-54C634.3,243.2,636.5,241,639.3,241z"
	/>
<path class="st2" d="M247.8,373h54c2.8,0,5,2.2,5,5v54c0,2.8-2.2,5-5,5h-54c-2.8,0-5-2.2-5-5v-54C242.8,375.2,245,373,247.8,373z"/>
<path class="st2" d="M345.8,373h54c2.8,0,5,2.2,5,5v54c0,2.8-2.2,5-5,5h-54c-2.8,0-5-2.2-5-5v-54C340.8,375.2,343,373,345.8,373z"/>
<path class="st2" d="M443.8,373h54c2.8,0,5,2.2,5,5v54c0,2.8-2.2,5-5,5h-54c-2.8,0-5-2.2-5-5v-54C438.8,375.2,441,373,443.8,373z"/>
<path class="st2" d="M541.8,373h54c2.8,0,5,2.2,5,5v54c0,2.8-2.2,5-5,5h-54c-2.8,0-5-2.2-5-5v-54C536.8,375.2,539,373,541.8,373z"/>
<path class="st2" d="M639.8,373h54c2.8,0,5,2.2,5,5v54c0,2.8-2.2,5-5,5h-54c-2.8,0-5-2.2-5-5v-54C634.8,375.2,637,373,639.8,373z"/>
<rect x="185.3" y="41" class="st2" width="62" height="5"/>
<rect x="614.3" y="41" class="st2" width="62" height="5"/>
<rect x="690.3" y="41" class="st2" width="62" height="5"/>
<circle class="st2" cx="440.8" cy="542" r="8.5"/>
<circle class="st2" cx="470.3" cy="542" r="8.5"/>
<circle class="st2" cx="499.7" cy="542" r="8.5"/>
<path class="st1" d="M252.3,113h54c2.8,0,5,2.2,5,5v54c0,2.8-2.2,5-5,5h-54c-2.8,0-5-2.2-5-5v-54C247.3,115.2,249.5,113,252.3,113z"
	/>
<path class="st1" d="M350.3,113h54c2.8,0,5,2.2,5,5v54c0,2.8-2.2,5-5,5h-54c-2.8,0-5-2.2-5-5v-54C345.3,115.2,347.5,113,350.3,113z"
	/>
<path class="st1" d="M448.3,113h54c2.8,0,5,2.2,5,5v54c0,2.8-2.2,5-5,5h-54c-2.8,0-5-2.2-5-5v-54C443.3,115.2,445.5,113,448.3,113z"
	/>
<path class="st1" d="M546.3,113h54c2.8,0,5,2.2,5,5v54c0,2.8-2.2,5-5,5h-54c-2.8,0-5-2.2-5-5v-54C541.3,115.2,543.5,113,546.3,113z"
	/>
<path class="st1" d="M644.3,113h54c2.8,0,5,2.2,5,5v54c0,2.8-2.2,5-5,5h-54c-2.8,0-5-2.2-5-5v-54C639.3,115.2,641.5,113,644.3,113z"
	/>
<path class="st1" d="M252.3,245h54c2.8,0,5,2.2,5,5v54c0,2.8-2.2,5-5,5h-54c-2.8,0-5-2.2-5-5v-54C247.3,247.2,249.5,245,252.3,245z"
	/>
<path class="st1" d="M350.3,245h54c2.8,0,5,2.2,5,5v54c0,2.8-2.2,5-5,5h-54c-2.8,0-5-2.2-5-5v-54C345.3,247.2,347.5,245,350.3,245z"
	/>
<path class="st1" d="M448.3,245h54c2.8,0,5,2.2,5,5v54c0,2.8-2.2,5-5,5h-54c-2.8,0-5-2.2-5-5v-54C443.3,247.2,445.5,245,448.3,245z"
	/>
<path class="st1" d="M546.3,245h54c2.8,0,5,2.2,5,5v54c0,2.8-2.2,5-5,5h-54c-2.8,0-5-2.2-5-5v-54C541.3,247.2,543.5,245,546.3,245z"
	/>
<path class="st1" d="M644.3,245h54c2.8,0,5,2.2,5,5v54c0,2.8-2.2,5-5,5h-54c-2.8,0-5-2.2-5-5v-54C639.3,247.2,641.5,245,644.3,245z"
	/>
<path class="st1" d="M252.3,377h54c2.8,0,5,2.2,5,5v54c0,2.8-2.2,5-5,5h-54c-2.8,0-5-2.2-5-5v-54C247.3,379.2,249.5,377,252.3,377z"
	/>
<path class="st1" d="M448.3,377h54c2.8,0,5,2.2,5,5v54c0,2.8-2.2,5-5,5h-54c-2.8,0-5-2.2-5-5v-54C443.3,379.2,445.5,377,448.3,377z"
	/>
<path class="st1" d="M546.3,377h54c2.8,0,5,2.2,5,5v54c0,2.8-2.2,5-5,5h-54c-2.8,0-5-2.2-5-5v-54C541.3,379.2,543.5,377,546.3,377z"
	/>
<path class="st1" d="M644.3,377h54c2.8,0,5,2.2,5,5v54c0,2.8-2.2,5-5,5h-54c-2.8,0-5-2.2-5-5v-54C639.3,379.2,641.5,377,644.3,377z"
	/>
<path class="st3" d="M364.2,716.7c0,0,19,36.8,29.7,45.1c10.7,8.3-17.2,18.4-17.2,18.4l-32.6-51L364.2,716.7z"/>
<path class="st4" d="M249,627.1c0,0,88.4,23.1,96.1,38.6c7.7,15.4,31.5,52.8,31.5,52.8l-35,27.9l-34.4-51.6l-95-42.7L249,627.1z"/>
<path class="st4" d="M373.7,765.4c0,0-8.3-7.1-10.7-2.4c-2.4,4.7-9.5,29.1-9.5,29.1s10.1,9.5,30.9,3.6c0,0,5.3-4.2,13.7,0
	c8.3,4.2,39.2-4.2,38-17.8s-32.6-12.5-32.6-12.5s-13.2-14.8-14.9-9.2c-1.7,5.6,0.7,6.2,0.7,6.2S378.4,773.7,373.7,765.4z"/>
<path class="st3" d="M272.2,752.9l-5.9,49.9h29.1c0,0-2.4-38.6-1.8-43.3S272.2,752.9,272.2,752.9z"/>
<path class="st3" d="M288.8,643.1c0,0,16,23.7,6.5,25.5c-9.5,1.8-17.2-25.5-17.2-25.5H288.8z"/>
<path class="st4" d="M167.7,640.7c0,0-11.9,35,35,44.5s61.1,17.2,61.1,17.2l5.9,60.5l41,2.4c0,0,19.6-92-5.9-103.9
	S225.3,636,225.3,636L167.7,640.7z"/>
<path class="st4" d="M269.8,795c0,0,8.3-4.2,9.5-4.2c0,0,5.2-12,14.8-10.8l20.8,30.3c0,0,31.5,22.6,9.5,28.5s-39.2,1.2-39.2,1.2
	l-8.9-6.5c0,0,1.2-6.5-6.5-5.3c0,0-16-6.5-15.4-11.3s13.2-25.4,13.2-25.4L269.8,795z"/>
<circle class="st3" cx="274.9" cy="501.6" r="23.7"/>
<path class="st3" d="M255.6,494.1c0,0-21.4,15.4-25.5,16s19.6,29.7,19.6,29.7s11.3-18.4,18.4-20.8S255.6,494.1,255.6,494.1z"/>
<path class="st5" d="M260.3,546L260.3,546l20.2,70.4l14.8,33.8c0,0-16-5.5-17.2,1.1L254.4,617L260.3,546z"/>
<path class="st6" d="M260.3,546L260.3,546l20.2,70.4l14.8,33.8c0,0-16-5.5-17.2,1.1L254.4,617L260.3,546z"/>
<path class="st4" d="M269.5,482.1l12.9,1.6c-0.2,2.6-0.2,5.9,2.2,7.1c1.1,0.6,2.5,0.6,3.5,1.3c2.3,1.9,0.1,5.9,1.4,8.5l3.8,1
	c1.9,3.6,6.3,4.9,9.9,3c0,0,0,0,0,0c2.5-1.5,3.8-4.4,5-7.2c1.4-3.3,2.8-6.8,2.1-10.2c-0.7-3.7-3.8-6.8-3.9-10.6
	c-0.1-1.7,0.3-3.8-1.1-4.7c-0.7-0.3-1.4-0.5-2.1-0.6c-3.3-0.7-5.1-4.1-7.6-6.4c-5.2-4.8-13.1-4.7-20.1-4.3c-2,0-4,0.4-5.9,1
	c-2.1,1.1-4.1,2.6-5.6,4.4c-3.8,4-7.5,8.3-10,13.2c-2.5,4.9-3.7,10.7-2.4,16.1c-0.1-0.5,4.4-3.9,4.9-4.4c1.8-1.7,1.9-2.5,2.9-4.5
	C261.5,481.9,264.5,481.5,269.5,482.1z"/>
<path class="st5" d="M239.6,513.7c0,0-8.9-11.9-14.2-11.9s-36.9,9.4-41,49.2S166,656.2,166,656.2s-3.6-17.2,36.2-10.1
	c0,0,47.5-10.1,55.8-10.1c8.3,0,3.3-86,3.3-86l-5-19.8C256.3,530.2,250.2,541.6,239.6,513.7z"/>
<path class="st1" d="M267.3,595h54c2.8,0,5,2.2,5,5v54c0,2.8-2.2,5-5,5h-54c-2.8,0-5-2.2-5-5v-54C262.3,597.2,264.5,595,267.3,595z"
	/>
<polygon class="st6" points="231.5,558.5 233.3,600.1 259.7,631 235.7,596.5 "/>
<polygon class="st6" points="184.1,569.8 204.8,617.9 231.5,639.8 203.1,620.3 "/>
<path class="st3" d="M271.5,637.5c0,0,23.5,16.3,15.3,21.4c-8.2,5.1-25.3-17.5-25.3-17.5L271.5,637.5z"/>
<path class="st5" d="M201.6,516.7c0,0-17.2,49.9-14.5,56.8c8.5,21.8,18.1,42.3,18.1,42.3l26.8,24.3l36.1,10.2l4.2-3.6
	c0,0,1.2-11.3-4.2-12.5c-5.3-1.2-13.7-5.9-13.7-5.9L233,596.8C233,596.8,232.4,518.5,201.6,516.7z"/>
<path class="st1" d="M1002.6,616.5c0,63-37.4,85.1-83.6,85.1c-1.1,0-2.1,0-3.2,0c-2.1,0-4.3-0.1-6.4-0.3
	c-41.7-2.9-74.1-26.1-74.2-84.7c0-60.7,77.5-137.3,83.3-142.9c0,0,0,0,0,0c0.2-0.2,0.3-0.3,0.3-0.3S1002.5,553.5,1002.6,616.5z"/>
<path class="st0" d="M915.9,692l30.6-42.8l-30.7,47.5l-0.1,4.9c-2.1,0-4.3-0.1-6.4-0.3l3.3-63.1l0-0.5l0.1-0.1l0.3-6l-30.8-47.6
	l30.9,43.1l0.1,1.3l2.5-47.6l-26.4-49.2l26.7,40.8l2.5-98.8l0-0.3l0,0.3l-0.4,77.9l26.2-30.9L918,558.3l-0.7,42.7l24.5-41
	l-24.6,47.2l-0.4,23.7l35.5-57l-35.6,65.3L915.9,692z"/>
<rect x="835.3" y="700.6" class="st0" width="158.4" height="1.9"/>
<rect x="24.2" y="700.6" class="st0" width="77.5" height="1.9"/>
<path class="st0" d="M867,351.2c-6.2,0-11.2-5-11.2-11.2s5-11.2,11.2-11.2s11.2,5,11.2,11.2C878.2,346.2,873.2,351.2,867,351.2z
	 M867,330.6c-5.2,0-9.4,4.2-9.4,9.4c0,5.2,4.2,9.4,9.4,9.4c5.2,0,9.4-4.2,9.4-9.4C876.4,334.8,872.2,330.6,867,330.6L867,330.6z"/>
<path class="st0" d="M1026.8,309h-24.4v-24.4h24.4V309z M1004.3,307.1h20.6v-20.6h-20.6V307.1z"/>
</svg>
